<svg width="18" height="18" viewBox="0 0 18 18" fill="none" xmlns="http://www.w3.org/2000/svg">
	<path fill-rule="evenodd" clip-rule="evenodd" d="M11.8837 1.65499C12.1033 1.87466 12.1033 2.23081 11.8837 2.45048L10.3333 4.00081C10.0665 4.27401 9.91705 4.64077 9.91705 5.02273C9.91705 5.40469 10.0665 5.77146 10.3333 6.04466L10.5409 6.25224L13.1132 3.67999C13.3328 3.46032 13.689 3.46032 13.9087 3.67999C14.1283 3.89966 14.1283 4.25581 13.9087 4.47548L11.3364 7.04773L11.544 7.25533C11.8172 7.52217 12.184 7.6716 12.5659 7.6716C12.9479 7.6716 13.3146 7.52218 13.5878 7.25536L15.1382 5.70499C15.3578 5.48532 15.714 5.48532 15.9337 5.70499C16.1533 5.92466 16.1533 6.28081 15.9337 6.50048L14.3772 8.05696C13.8935 8.53106 13.2432 8.7966 12.5659 8.7966C11.8886 8.7966 11.2383 8.53104 10.7547 8.05694L10.7506 8.053L10.5409 7.84323L9.58141 8.80273L15.9337 15.155C16.1533 15.3747 16.1533 15.7308 15.9337 15.9505C15.714 16.1702 15.3578 16.1702 15.1382 15.9505L10.8109 11.6232L10.1287 12.3055C10.1198 12.3143 10.1107 12.3228 10.1013 12.3311C9.36464 12.9757 8.1488 13.0111 7.44317 12.3055L6.76045 11.6228L2.49802 15.8186C2.27662 16.0365 1.92048 16.0337 1.70255 15.8123C1.48461 15.5909 1.48742 15.2348 1.70881 15.0169L5.96493 10.8272L2.51761 7.37993C2.19576 7.06402 1.94001 6.68719 1.76529 6.2714C1.59019 5.85469 1.5 5.40724 1.5 4.95523C1.5 4.50323 1.59019 4.05578 1.76529 3.63907C1.9404 3.22236 2.19689 2.84478 2.51975 2.52845C2.74005 2.3126 3.09307 2.3144 3.31116 2.53249L8.78591 8.00724L9.74542 7.04773L9.53169 6.834C9.05759 6.35033 8.79205 5.70002 8.79205 5.02273C8.79205 4.34545 9.05761 3.69516 9.53171 3.21148L9.53565 3.20747L11.0882 1.65499C11.3078 1.43532 11.664 1.43532 11.8837 1.65499ZM8.38768 9.19999L2.95823 3.77055C2.89887 3.86771 2.84676 3.96942 2.80245 4.07488C2.68533 4.35361 2.625 4.6529 2.625 4.95523C2.625 5.25757 2.68533 5.55686 2.80245 5.83558C2.91957 6.11431 3.09113 6.36686 3.30708 6.57845L3.31118 6.58247L8.23866 11.51C8.47517 11.7465 9.00437 11.7839 9.34813 11.495L10.0154 10.8277L8.38866 9.20097C8.38849 9.20081 8.38882 9.20113 8.38866 9.20097C8.38849 9.20081 8.38784 9.20016 8.38768 9.19999Z" fill="#1C2834"/>
</svg>
